<svg width="66" height="54" viewBox="0 0 66 54" fill="none" xmlns="http://www.w3.org/2000/svg">
<path d="M6.00997 48V6H48.0798V13.635C50.2077 14.1804 52.2266 15.0843 54.0897 16.1735V6C54.0897 4.35 53.5013 2.9375 52.3243 1.7625C51.1474 0.5875 49.7325 0 48.0798 0H6.00997C4.35723 0 2.94238 0.5875 1.76543 1.7625C0.588476 2.9375 0 4.35 0 6V48C0 49.65 0.588476 51.0625 1.76543 52.2375C2.94238 53.4125 4.35723 54 6.00997 54H48.0798C49.7325 54 51.1474 53.4125 52.3243 52.2375C53.5013 51.0625 54.0897 49.65 54.0897 48V38.0893C52.2266 39.1785 50.2077 40.0824 48.0798 40.6278V48H6.00997Z" fill="currentColor"/>
<path fill-rule="evenodd" clip-rule="evenodd" d="M57.0941 36.0935C56.1482 36.7973 55.1439 37.4729 54.0897 38.0893C52.2266 39.1785 50.2077 40.0824 48.0798 40.6278C46.682 40.9861 45.2372 41.1898 43.7587 41.1898C38.6997 41.1898 34.0351 38.8051 30.2982 36C30.215 35.9375 30.1322 35.8748 30.0499 35.8119C27.5694 33.9171 25.5123 31.8526 24.0399 30.2125C22.4287 28.4179 21.5174 27.1314 21.5174 27.1314C21.5174 27.1314 22.4287 25.8449 24.0399 24.0503C25.5123 22.4102 27.5694 20.3457 30.0499 18.4509C30.2481 18.2994 30.4491 18.149 30.6527 18C34.3282 15.3104 38.8584 13.073 43.7587 13.073C45.2372 13.073 46.682 13.2767 48.0798 13.635C50.2077 14.1804 52.2266 15.0843 54.0897 16.1735C55.1442 16.79 56.1487 17.4658 57.0947 18.1697C59.5359 19.986 61.588 21.9889 63.1047 23.6397C64.9475 25.6454 66 27.1314 66 27.1314C66 27.1314 64.9475 28.6174 63.1047 30.6231C61.5878 32.274 59.5355 34.2771 57.0941 36.0935ZM51.0847 20.0512C52.8345 21.8889 53.9098 24.3836 53.9098 27.1314C53.9098 29.8792 52.8345 32.3739 51.0847 34.2116C50.4198 34.91 49.6574 35.5136 48.8196 36C47.3298 36.865 45.6016 37.3598 43.7587 37.3598C41.9158 37.3598 40.1876 36.865 38.6979 36C35.6556 34.2336 33.6076 30.9235 33.6076 27.1314C33.6076 23.1422 35.874 19.6864 39.1801 18C40.5558 17.2983 42.1114 16.9029 43.7587 16.9029C45.406 16.9029 46.9617 17.2983 48.3373 18C49.3661 18.5248 50.2943 19.2209 51.0847 20.0512Z" fill="currentColor"/>
<path d="M43.7587 32.9926C46.9714 32.9926 49.5757 30.3684 49.5757 27.1314C49.5757 23.8944 46.9714 21.2702 43.7587 21.2702C42.357 21.2702 41.0712 21.7697 40.0669 22.6017C38.7693 23.6767 37.9418 25.3067 37.9418 27.1314C37.9418 28.837 38.6649 30.3725 39.819 31.4436C40.8552 32.4053 42.2389 32.9926 43.7587 32.9926Z" fill="currentColor"/>
</svg>
